<svg width="89" height="89" viewBox="0 0 89 89" fill="none" xmlns="http://www.w3.org/2000/svg">
<path opacity="0.3" fill-rule="evenodd" clip-rule="evenodd" d="M5.34405 0.831421C4.23546 -0.27714 2.43808 -0.27714 1.32949 0.831421C0.220899 1.93998 0.220899 3.73732 1.32949 4.84588L83.656 87.1702C84.7646 88.2788 86.5619 88.2788 87.6705 87.1702C88.7791 86.0617 88.7791 84.2643 87.6705 83.1558L5.34405 0.831421ZM1.44533 21.5857L1.44533 14.1618L6.41304 19.1293V21.5857C6.41304 22.9575 5.30098 24.0696 3.92919 24.0696C2.55739 24.0696 1.44533 22.9575 1.44533 21.5857ZM16.3074 38.5947V29.0234L20.5448 33.2607V38.6544C20.5448 39.1918 20.6691 39.5899 20.9178 39.8487C21.1665 40.1074 21.5395 40.2368 22.0368 40.2368H27.5211L31.731 44.4467H22.0667C20.1569 44.4467 18.7195 43.969 17.7547 43.0135C16.7898 42.0581 16.3074 40.5852 16.3074 38.5947ZM34.4805 49.0148C35.2351 49.0148 35.916 49.0894 36.5231 49.2386L40.0107 52.7262C40.1634 53.3494 40.2398 54.053 40.2398 54.837V67.0784C40.2398 69.049 39.7574 70.512 38.7925 71.4674C37.8277 72.4228 36.3903 72.9005 34.4805 72.9005H22.0667C20.1569 72.9005 18.7195 72.4228 17.7547 71.4674C16.7898 70.512 16.3074 69.049 16.3074 67.0784V54.837C16.3074 52.8664 16.7898 51.4034 17.7547 50.448C18.7195 49.4925 20.1569 49.0148 22.0667 49.0148H34.4805ZM67.9704 83.1691C67.9704 82.4832 68.2485 81.8622 68.698 81.4127L72.9384 85.653H70.4543C69.0825 85.653 67.9704 84.5409 67.9704 83.1691ZM58.5208 44.4467H62.9189C64.8287 44.4467 66.266 43.969 67.2309 43.0135C68.1957 42.0581 68.6782 40.5852 68.6782 38.5947V26.3831C68.6782 24.4125 68.1957 22.9446 67.2309 21.9792C66.266 21.0138 64.8287 20.5311 62.9189 20.5311H50.5051C48.5952 20.5311 47.1579 21.0138 46.1931 21.9792C45.2282 22.9446 44.7458 24.4125 44.7458 26.3831V30.672L49.013 34.9392V26.3234C49.013 25.786 49.1324 25.3929 49.3711 25.144C49.6098 24.8952 49.9878 24.7708 50.5051 24.7708H62.9786C63.456 24.7708 63.8141 24.8952 64.0528 25.144C64.2916 25.3929 64.4109 25.786 64.4109 26.3234V38.6544C64.4109 39.1918 64.2916 39.5899 64.0528 39.8487C63.8141 40.1074 63.456 40.2368 62.9786 40.2368H54.3108L58.5208 44.4467ZM67.3055 53.2312L64.4028 50.3285H66.6788C67.0966 50.3285 67.3055 50.5475 67.3055 50.9854V53.2312ZM40.2378 26.1642L34.6053 20.5318C36.453 20.5525 37.8488 21.0349 38.7925 21.9792C39.7213 22.9085 40.203 24.3035 40.2378 26.1642ZM81.07 7.79254C82.4418 7.79254 83.5538 8.9046 83.5538 10.2764V20.878C83.5538 22.2498 82.4418 23.3618 81.07 23.3618C79.6982 23.3618 78.5861 22.2498 78.5861 20.878V12.7602H69.7465C68.3747 12.7602 67.2627 11.6482 67.2627 10.2764C67.2627 8.9046 68.3747 7.79254 69.7465 7.79254H80.3485C80.471 7.79254 80.5915 7.80141 80.7092 7.81854C80.827 7.80141 80.9474 7.79254 81.07 7.79254ZM3.9155 85.639C2.5437 85.639 1.43165 84.527 1.43165 83.1552L1.43165 72.5536C1.43165 71.1818 2.5437 70.0698 3.9155 70.0698C5.28729 70.0698 6.39935 71.1818 6.39935 72.5536L6.39935 80.6713H15.2389C16.6107 80.6713 17.7228 81.7834 17.7228 83.1552C17.7228 84.527 16.6107 85.639 15.2389 85.639H4.63695C4.51443 85.639 4.39399 85.6302 4.27622 85.613C4.15846 85.6302 4.03801 85.639 3.9155 85.639ZM59.338 35.5493C59.716 35.5493 59.9049 35.3204 59.9049 34.8625V30.0854C59.9049 29.6674 59.716 29.4584 59.338 29.4584H54.3844C54.0064 29.4584 53.8174 29.6674 53.8174 30.0854V34.8625C53.8174 35.3204 54.0064 35.5493 54.3844 35.5493H59.338ZM34.4805 68.6907H22.0368C21.5395 68.6907 21.1665 68.5613 20.9178 68.3025C20.6691 68.0438 20.5448 67.6556 20.5448 67.1381V54.8071C20.5448 54.2697 20.6691 53.8716 20.9178 53.6128C21.1665 53.3541 21.5395 53.2247 22.0368 53.2247H34.4805C34.9778 53.2247 35.3509 53.3541 35.5995 53.6128C35.8482 53.8716 35.9725 54.2697 35.9725 54.8071V67.1381C35.9725 67.6556 35.8482 68.0438 35.5995 68.3025C35.3509 68.5613 34.9778 68.6907 34.4805 68.6907ZM30.7205 64.0031C31.1184 64.0031 31.3174 63.7842 31.3174 63.3463V58.5393C31.3174 58.1213 31.1184 57.9123 30.7205 57.9123H25.7968C25.4188 57.9123 25.2298 58.1213 25.2298 58.5393V63.3463C25.2298 63.7842 25.4188 64.0031 25.7968 64.0031H30.7205ZM51.639 71.4973C52.0369 71.4973 52.2358 71.2684 52.2358 70.8105V66.0334C52.2358 65.5955 52.0369 65.3765 51.639 65.3765H46.6854C46.3273 65.3765 46.1483 65.5955 46.1483 66.0334V70.8105C46.1483 71.2684 46.3273 71.4973 46.6854 71.4973H51.639Z" fill="#74797E"/>
</svg>
