<svg width="63" height="63" viewBox="0 0 63 63" fill="none" xmlns="http://www.w3.org/2000/svg">
<path fill-rule="evenodd" clip-rule="evenodd" d="M3.41426 0.585779C2.6332 -0.19526 1.36685 -0.19526 0.585794 0.585779C-0.195265 1.36682 -0.195265 2.63313 0.585794 3.41417L58.589 61.4159C59.3701 62.1969 60.6364 62.1969 61.4175 61.4159C62.1985 60.6348 62.1985 59.3685 61.4175 58.5875L3.41426 0.585779ZM0.66745 15.2082V9.97771L4.16745 13.4776L4.16745 15.2082C4.16745 16.1747 3.38395 16.9582 2.41745 16.9582C1.45095 16.9582 0.66745 16.1747 0.66745 15.2082ZM11.1385 27.1919V20.4485L14.124 23.4339V27.234C14.124 27.6126 14.2116 27.8931 14.3868 28.0754C14.562 28.2577 14.8248 28.3489 15.1752 28.3489H19.0391L22.0052 31.3149H15.1962C13.8506 31.3149 12.838 30.9784 12.1582 30.3052C11.4784 29.6321 11.1385 28.5943 11.1385 27.1919ZM23.9424 34.5334C24.474 34.5334 24.9537 34.586 25.3815 34.6911L27.8387 37.1483C27.9463 37.5874 28.0001 38.0831 28.0001 38.6354V47.2601C28.0001 48.6485 27.6602 49.6793 26.9804 50.3524C26.3006 51.0256 25.2879 51.3621 23.9424 51.3621H15.1962C13.8506 51.3621 12.838 51.0256 12.1582 50.3524C11.4784 49.6793 11.1385 48.6485 11.1385 47.2601V38.6354C11.1385 37.2471 11.4784 36.2163 12.1582 35.5432C12.838 34.87 13.8506 34.5334 15.1962 34.5334H23.9424ZM47.5377 58.5969C47.5377 58.1136 47.7336 57.6761 48.0503 57.3594L51.0379 60.3469H49.2877C48.3212 60.3469 47.5377 59.5634 47.5377 58.5969ZM40.88 31.3149H43.9787C45.3242 31.3149 46.3369 30.9784 47.0167 30.3052C47.6965 29.6321 48.0364 28.5943 48.0364 27.1919V18.5882C48.0364 17.1999 47.6965 16.1656 47.0167 15.4854C46.3369 14.8053 45.3242 14.4652 43.9787 14.4652H35.2325C33.8869 14.4652 32.8742 14.8053 32.1945 15.4854C31.5147 16.1656 31.1748 17.1999 31.1748 18.5882V21.61L34.1813 24.6164V18.5462C34.1813 18.1675 34.2654 17.8905 34.4336 17.7152C34.6018 17.5399 34.8681 17.4523 35.2325 17.4523H44.0207C44.3571 17.4523 44.6094 17.5399 44.7776 17.7152C44.9458 17.8905 45.0299 18.1675 45.0299 18.5462V27.234C45.0299 27.6126 44.9458 27.8931 44.7776 28.0754C44.6094 28.2577 44.3571 28.3489 44.0207 28.3489H37.9138L40.88 31.3149ZM47.0693 37.5041L45.0241 35.459H46.6277C46.9221 35.459 47.0693 35.6133 47.0693 35.9218V37.5041ZM27.9987 18.434L24.0303 14.4657C25.3321 14.4803 26.3155 14.8202 26.9804 15.4854C27.6348 16.1402 27.9742 17.123 27.9987 18.434ZM56.767 5.49022C57.7335 5.49022 58.517 6.27373 58.517 7.24022V14.7096C58.517 15.6761 57.7335 16.4596 56.767 16.4596C55.8005 16.4596 55.017 15.6761 55.017 14.7096V8.99022L48.7891 8.99022C47.8226 8.99022 47.0391 8.20672 47.0391 7.24022C47.0391 6.27373 47.8226 5.49022 48.7891 5.49022H56.2587C56.345 5.49022 56.4299 5.49647 56.5128 5.50854C56.5958 5.49647 56.6807 5.49022 56.767 5.49022ZM2.40777 60.3371C1.44127 60.3371 0.657768 59.5536 0.657768 58.5871V51.1177C0.657768 50.1512 1.44127 49.3677 2.40777 49.3677C3.37427 49.3677 4.15777 50.1512 4.15777 51.1177V56.8371H10.3857C11.3522 56.8371 12.1357 57.6206 12.1357 58.5871C12.1357 59.5536 11.3522 60.3371 10.3857 60.3371H2.91605C2.82973 60.3371 2.74488 60.3308 2.66191 60.3187C2.57894 60.3308 2.49408 60.3371 2.40777 60.3371ZM41.4557 25.0463C41.722 25.0463 41.8552 24.885 41.8552 24.5624V21.1967C41.8552 20.9022 41.722 20.7549 41.4557 20.7549H37.9657C37.6994 20.7549 37.5662 20.9022 37.5662 21.1967V24.5624C37.5662 24.885 37.6994 25.0463 37.9657 25.0463H41.4557ZM23.9424 48.3961H15.1752C14.8248 48.3961 14.562 48.3049 14.3868 48.1226C14.2116 47.9403 14.124 47.6668 14.124 47.3022V38.6144C14.124 38.2357 14.2116 37.9553 14.3868 37.773C14.562 37.5906 14.8248 37.4995 15.1752 37.4995H23.9424C24.2928 37.4995 24.5556 37.5906 24.7308 37.773C24.906 37.9553 24.9936 38.2357 24.9936 38.6144V47.3022C24.9936 47.6668 24.906 47.9403 24.7308 48.1226C24.5556 48.3049 24.2928 48.3961 23.9424 48.3961ZM21.2933 45.0934C21.5736 45.0934 21.7138 44.9392 21.7138 44.6307V41.2439C21.7138 40.9494 21.5736 40.8021 21.2933 40.8021H17.8243C17.5579 40.8021 17.4248 40.9494 17.4248 41.2439V44.6307C17.4248 44.9392 17.5579 45.0934 17.8243 45.0934H21.2933ZM36.0314 50.3734C36.3117 50.3734 36.4519 50.2122 36.4519 49.8896V46.5239C36.4519 46.2154 36.3117 46.0611 36.0314 46.0611H32.5414C32.2891 46.0611 32.1629 46.2154 32.1629 46.5239V49.8896C32.1629 50.2122 32.2891 50.3734 32.5414 50.3734H36.0314Z" fill="#ED4747"/>
</svg>
