<svg width="63" height="63" viewBox="0 0 63 63" fill="none" xmlns="http://www.w3.org/2000/svg">
<path fill-rule="evenodd" clip-rule="evenodd" d="M3.91264 0.585779C3.13158 -0.19526 1.86524 -0.19526 1.08418 0.585779C0.303118 1.36682 0.303118 2.63313 1.08418 3.41417L59.0874 61.4159C59.8684 62.1969 61.1348 62.1969 61.9158 61.4159C62.6969 60.6348 62.6969 59.3685 61.9158 58.5875L3.91264 0.585779ZM1.16583 15.2082V9.97771L4.66583 13.4776L4.66583 15.2082C4.66583 16.1747 3.88233 16.9582 2.91583 16.9582C1.94933 16.9582 1.16583 16.1747 1.16583 15.2082ZM11.6369 27.1919V20.4485L14.6223 23.4339V27.234C14.6223 27.6126 14.7099 27.8931 14.8851 28.0754C15.0603 28.2577 15.3231 28.3489 15.6736 28.3489H19.5375L22.5036 31.3149H15.6946C14.349 31.3149 13.3363 30.9784 12.6565 30.3052C11.9768 29.6321 11.6369 28.5943 11.6369 27.1919ZM24.4407 34.5334C24.9724 34.5334 25.4521 34.586 25.8798 34.6911L28.3371 37.1483C28.4447 37.5874 28.4985 38.0831 28.4985 38.6354V47.2601C28.4985 48.6485 28.1586 49.6793 27.4788 50.3524C26.799 51.0256 25.7863 51.3621 24.4407 51.3621H15.6946C14.349 51.3621 13.3363 51.0256 12.6565 50.3524C11.9768 49.6793 11.6369 48.6485 11.6369 47.2601V38.6354C11.6369 37.2471 11.9768 36.2163 12.6565 35.5432C13.3363 34.87 14.349 34.5334 15.6946 34.5334H24.4407ZM48.0361 58.5969C48.0361 58.1136 48.232 57.6761 48.5487 57.3594L51.5363 60.3469H49.7861C48.8196 60.3469 48.0361 59.5634 48.0361 58.5969ZM41.3783 31.3149H44.477C45.8226 31.3149 46.8353 30.9784 47.5151 30.3052C48.1949 29.6321 48.5348 28.5943 48.5348 27.1919V18.5882C48.5348 17.1999 48.1949 16.1656 47.5151 15.4854C46.8353 14.8053 45.8226 14.4652 44.477 14.4652H35.7309C34.3853 14.4652 33.3726 14.8053 32.6928 15.4854C32.0131 16.1656 31.6732 17.1999 31.6732 18.5882V21.61L34.6796 24.6164V18.5462C34.6796 18.1675 34.7637 17.8905 34.9319 17.7152C35.1001 17.5399 35.3664 17.4523 35.7309 17.4523H44.5191C44.8555 17.4523 45.1078 17.5399 45.276 17.7152C45.4442 17.8905 45.5283 18.1675 45.5283 18.5462V27.234C45.5283 27.6126 45.4442 27.8931 45.276 28.0754C45.1078 28.2577 44.8555 28.3489 44.5191 28.3489H38.4122L41.3783 31.3149ZM47.5676 37.5041L45.5225 35.459H47.1261C47.4205 35.459 47.5676 35.6133 47.5676 35.9218V37.5041ZM28.497 18.434L24.5287 14.4657C25.8305 14.4803 26.8139 14.8202 27.4788 15.4854C28.1332 16.1402 28.4726 17.123 28.497 18.434ZM57.2654 5.49022C58.2319 5.49022 59.0154 6.27373 59.0154 7.24022V14.7096C59.0154 15.6761 58.2319 16.4596 57.2654 16.4596C56.2989 16.4596 55.5154 15.6761 55.5154 14.7096V8.99022L49.2874 8.99022C48.3209 8.99022 47.5374 8.20672 47.5374 7.24022C47.5374 6.27373 48.3209 5.49022 49.2874 5.49022H56.7571C56.8434 5.49022 56.9282 5.49647 57.0112 5.50854C57.0942 5.49647 57.179 5.49022 57.2654 5.49022ZM2.90615 60.3371C1.93965 60.3371 1.15615 59.5536 1.15615 58.5871V51.1177C1.15615 50.1512 1.93965 49.3677 2.90615 49.3677C3.87265 49.3677 4.65615 50.1512 4.65615 51.1177V56.8371H10.8841C11.8506 56.8371 12.6341 57.6206 12.6341 58.5871C12.6341 59.5536 11.8506 60.3371 10.8841 60.3371H3.41443C3.32811 60.3371 3.24326 60.3308 3.16029 60.3187C3.07732 60.3308 2.99247 60.3371 2.90615 60.3371ZM41.9541 25.0463C42.2204 25.0463 42.3536 24.885 42.3536 24.5624V21.1967C42.3536 20.9022 42.2204 20.7549 41.9541 20.7549H38.4641C38.1977 20.7549 38.0646 20.9022 38.0646 21.1967V24.5624C38.0646 24.885 38.1977 25.0463 38.4641 25.0463H41.9541ZM24.4407 48.3961H15.6736C15.3231 48.3961 15.0603 48.3049 14.8851 48.1226C14.7099 47.9403 14.6223 47.6668 14.6223 47.3022V38.6144C14.6223 38.2357 14.7099 37.9553 14.8851 37.773C15.0603 37.5906 15.3231 37.4995 15.6736 37.4995H24.4407C24.7912 37.4995 25.054 37.5906 25.2292 37.773C25.4044 37.9553 25.492 38.2357 25.492 38.6144V47.3022C25.492 47.6668 25.4044 47.9403 25.2292 48.1226C25.054 48.3049 24.7912 48.3961 24.4407 48.3961ZM21.7917 45.0934C22.072 45.0934 22.2122 44.9392 22.2122 44.6307V41.2439C22.2122 40.9494 22.072 40.8021 21.7917 40.8021H18.3226C18.0563 40.8021 17.9232 40.9494 17.9232 41.2439V44.6307C17.9232 44.9392 18.0563 45.0934 18.3226 45.0934H21.7917ZM36.5298 50.3734C36.8101 50.3734 36.9503 50.2122 36.9503 49.8896V46.5239C36.9503 46.2154 36.8101 46.0611 36.5298 46.0611H33.0397C32.7874 46.0611 32.6613 46.2154 32.6613 46.5239V49.8896C32.6613 50.2122 32.7874 50.3734 33.0397 50.3734H36.5298Z" fill="#898989"/>
</svg>
